<svg viewBox="0 0 92 77" xmlns="http://www.w3.org/2000/svg"><g fill="none" fill-rule="evenodd"><path d="m445.5 85.88v5.625c0 5.168-4.207 9.375-9.375 9.375-1.035 0-1.875-.84-1.875-1.875 0-1.035.84-1.875 1.875-1.875 3.101 0 5.625-2.524 5.625-5.625v-3.75h-13.12c-1.035 0-1.875-.84-1.875-1.875v-15c0-1.035.84-1.875 1.875-1.875h15c1.035 0 1.875.84 1.875 1.875v15m-26.25 0v5.625c0 5.168-4.207 9.375-9.375 9.375-1.035 0-1.875-.84-1.875-1.875 0-1.035.84-1.875 1.875-1.875 3.101 0 5.625-2.524 5.625-5.625v-3.75h-13.12c-1.035 0-1.875-.84-1.875-1.875v-15c0-1.035.84-1.875 1.875-1.875h15c1.035 0 1.875.84 1.875 1.875v15m46.875-31.875h-86.25c-1.035 0-1.875.84-1.875 1.875v56.25c0 1.035.84 1.875 1.875 1.875h24.375v13.13c0 .757.457 1.444 1.159 1.732.233.094.476.143.716.143.488 0 .967-.191 1.327-.548l14.449-14.452h44.22c1.035 0 1.875-.84 1.875-1.875v-56.25c0-1.035-.84-1.875-1.875-1.875" transform="translate(-377-53)" stroke="#0aaae7"/></g></svg>