<?xml version="1.0" encoding="UTF-8"?>
<svg width="40px" height="40px" viewBox="0 0 40 40" version="1.1" xmlns="http://www.w3.org/2000/svg" xmlns:xlink="http://www.w3.org/1999/xlink">
    <!-- Generator: Sketch 58 (84663) - https://sketch.com -->
    <title>Artboard</title>
    <desc>Created with Sketch.</desc>
    <g id="Artboard" stroke="none" stroke-width="1" fill="none" fill-rule="evenodd">
        <path d="M13.5208862,18.5898766 C13.9516112,15.5271459 14.6694863,11.9478101 15.5668302,9.18028247 C13.2696299,12.0216109 10.6852796,15.5640463 8.42397303,19.1802825 C9.14184812,19.1064817 9.85972321,19.032681 10.5417045,18.9219799 C11.7620922,18.7743784 12.5517548,18.6267769 13.5208862,18.5898766 Z M14.7697228,26.693256 C13.9990862,26.3036962 13.3335364,25.3829185 13.2985075,23.328876 C13.2985075,22.6914145 13.2985075,21.8768804 13.4035943,20.9561027 L10.9515687,21.2040043 C9.55041121,21.3456625 8.18428267,21.4873206 7.20347243,21.451906 C6.25769114,23.1163888 5.48705452,24.8871151 4.68138897,26.3391107 C4.26104173,27.0828158 3.6655498,26.9411577 3.42034724,26.4453543 C3.21017362,26.02038 3,25.7016493 3,25.1350168 C3,24.5683844 3.14011575,23.7538503 3.56046299,22.726829 C3.77063661,22.1956111 4.01583917,21.5935641 4.40115748,20.8498591 C3.77063661,20.3894702 3.45537618,19.8936669 3.35028937,19.6811797 C3.07005787,19.0083037 3.21017362,18.7958165 4.12092598,18.9374746 C4.6113311,19.0083037 4.8915626,19.0437182 5.38196771,19.0791327 C8.00913798,14.4398297 12.8431313,7.60482605 16.5211697,4.45293316 C17.2918063,3.81547168 17.8172403,3.8508862 18.3426744,4.55917674 C18.6929638,5.01956559 18.9031374,5.40912538 19.1483399,6.01117234 C19.3234846,6.43614666 19.4285714,6.82570646 19.4285714,7.25068078 C19.4285714,7.6756551 19.3585136,8.17145848 19.1483399,8.70267638 C18.3426744,11.2525223 17.3618641,14.9356331 16.6963143,18.6541584 C17.6420956,19.0791327 17.992385,19.7520087 18.2375876,20.4957138 C18.4127323,21.0623462 18.1675297,21.2040043 17.5370088,21.0977608 L16.310996,20.8852736 C16.1008224,22.6559999 15.9256777,24.4621408 15.8556199,26.1974526 C15.8556199,26.8349141 15.4002437,26.9765722 14.7697228,26.693256 Z M26.8502609,12.1988082 C27.2458455,12.6425572 27.4616189,13.1972433 27.4616189,13.8628668 C27.4616189,14.3805739 27.3896945,14.93526 27.1019966,15.5639044 C28.6483727,15.7487998 29.2956929,16.6362977 29.5114663,17.6717119 C29.619353,18.1154608 29.5833908,18.4482725 28.6843349,18.3743144 C28.2887503,18.3373353 27.8572035,18.3003562 27.4616189,18.3003562 C26.7423742,18.3003562 26.238903,18.3373353 25.5915827,18.4112935 C24.9083003,19.594624 24.2969423,20.7409754 23.8294332,21.9243059 C23.6136598,22.405034 23.2180753,22.7378457 22.570755,22.2571177 C22.0313215,21.8503478 21.7436236,21.4065988 21.7436236,20.4821219 C21.7436236,20.1123311 21.8874726,19.5206658 22.0672837,19.0029587 L22.1751705,18.670147 C20.5209077,18.5222307 19.8376252,17.6717119 19.5858896,16.5623395 C19.4780029,16.0446324 19.6218518,15.7118207 20.413021,15.7857789 C21.2761146,15.859737 22.5347928,15.7857789 23.5417354,15.7118207 C24.6925269,13.6040132 25.0881115,12.9014107 25.4477338,12.2727664 C25.7713939,11.644122 26.3827519,11.6071429 26.8502609,12.1988082 Z" id="A+" fill="#E00099" fill-rule="nonzero" transform="translate(16.277180, 15.428571) rotate(-18.000000) translate(-16.277180, -15.428571) "></path>
        <path d="M27.3173664,29.5394351 C31.9564946,29.6669861 33.8984553,30.279231 34.5457755,30.9935167 C34.8694356,31.2996392 34.7615489,31.529231 32.0643813,31.4782106 C30.8776276,31.4527004 29.5829871,31.4271902 28.3962334,31.4271902 C26.2384993,31.4271902 24.7280855,31.4527004 22.7861248,31.5037208 C17.4394685,31.6227684 14.0230563,31.6822922 12.5368879,31.6822922 C9.41148643,31.4782106 5.52425219,30.9935167 4.76904527,30.2282106 C4.44538516,29.8710677 4.87693197,29.6414759 7.25043946,29.6924963 C9.83972035,29.7435167 13.615755,29.6924963 16.6365827,29.6414759 C18.9797674,29.6924963 24.4075935,29.5394351 27.3173664,29.5394351 Z" id="Path" fill="#E00099" transform="translate(19.674459, 30.610864) rotate(-19.000000) translate(-19.674459, -30.610864) "></path>
        <path d="M32.3107682,31.8571429 C36.6185302,31.9846939 38.4217794,32.5969388 39.0228624,33.3112245 C39.323404,33.6173469 39.2232234,33.8469388 36.7187107,33.7959184 C35.6167251,33.7704082 34.4145589,33.744898 33.3125733,33.744898 C31.3089631,33.744898 29.906436,33.7704082 28.1031868,33.8214286 C23.1384345,33.9404762 19.9660517,34 18.5860383,34 C15.6838797,33.7959184 12.0743051,33.3112245 11.3730415,32.5459184 C11.0725,32.1887755 11.473222,31.9591837 13.6771932,32.0102041 C16.0815255,32.0612245 19.5878434,32.0102041 22.3928977,31.9591837 C24.568712,32.0102041 29.6088363,31.8571429 32.3107682,31.8571429 Z" id="Path-Copy" fill="#E00099" transform="translate(25.213783, 32.928571) rotate(-18.000000) translate(-25.213783, -32.928571) "></path>
    </g>
</svg>