<svg viewBox="0 0 24 24" xmlns="http://www.w3.org/2000/svg"><g fill="none" fill-rule="evenodd"><circle fill="#3d3d3d" cx="12" cy="12" r="12"/><g transform="translate(6 8)" fill="#fff"><path d="m11.841.532l-5.669 4.589c-.05.04-.111.061-.172.061-.061 0-.122-.02-.172-.061l-5.669-4.589c-.099.164-.159.353-.159.559v6c0 .602.489 1.091 1.091 1.091h9.818c.602 0 1.091-.489 1.091-1.091v-6c0-.205-.061-.394-.159-.559"/><path d="m11.448.148c-.16-.092-.342-.148-.539-.148h-9.818c-.197 0-.379.056-.539.148l5.448 4.41 5.448-4.41"/></g></g></svg>