<svg viewBox="0 0 24 24" xmlns="http://www.w3.org/2000/svg"><g fill="none" fill-rule="evenodd"><path d="m17.262 9.385c.006.113.008.226.008.34 0 3.478-2.648 7.49-7.489 7.49-1.486 0-2.87-.437-4.03-1.184 1.374.161 2.772-.207 3.897-1.089-1.152-.022-2.123-.783-2.458-1.829.396.075.803.061 1.188-.045-1.204-.241-2.111-1.305-2.111-2.579v-.035c.355.197.762.315 1.192.329-.706-.472-1.171-1.277-1.171-2.19 0-.482.13-.934.357-1.324 1.298 1.593 3.237 2.642 5.425 2.75-.045-.192-.069-.394-.069-.599 0-1.454 1.179-2.633 2.633-2.633.757 0 1.441.32 1.921.832.6-.119 1.95-.265 1.95-.265-.352.528-.723 1.659-1.238 2.031m-5.262-9.385c-6.617 0-12 5.383-12 12 0 6.617 5.383 12 12 12 6.617 0 12-5.383 12-12 0-6.617-5.383-12-12-12" fill="#55acee"/></g></svg>