<svg viewBox="0 0 24 24" xmlns="http://www.w3.org/2000/svg"><g fill="none" fill-rule="evenodd"><g fill="#dc4e41"><path d="m12.647 8.608c-.021-.669-.303-1.308-.793-1.798-.513-.514-1.18-.795-1.878-.795-.627 0-1.207.235-1.634.662-.447.447-.681 1.055-.661 1.712.021.669.303 1.308.794 1.798.966.968 2.616 1.03 3.511.133.447-.447.682-1.055.661-1.712"/><path d="m10.164 14.226c-2.155 0-3.977.958-3.977 2.093 0 1.135 1.822 2.092 3.977 2.092 2.155 0 3.976-.957 3.976-2.092 0-1.135-1.821-2.093-3.976-2.093"/><path d="m12 0c-6.617 0-12 5.383-12 12 0 6.617 5.383 12 12 12 6.617 0 12-5.383 12-12 0-6.617-5.383-12-12-12"/></g><g transform="translate(4 7)" fill="#fff"><path d="m5.091 4.408v1.763h2.887c-.116.757-.873 2.219-2.887 2.219-1.738 0-3.156-1.455-3.156-3.247 0-1.793 1.418-3.247 3.156-3.247.989 0 1.651.426 2.029.793l1.382-1.344c-.887-.838-2.036-1.344-3.411-1.344-2.815 0-5.091 2.3-5.091 5.143 0 2.843 2.276 5.143 5.091 5.143 2.938 0 4.887-2.087 4.887-5.03 0-.338-.036-.595-.08-.852h-4.807"/><path d="m16 4.408h-1.455v-1.469h-1.455v1.469h-1.455v1.469h1.455v1.469h1.455v-1.469h1.455"/></g></g></svg>