<?xml version="1.0" encoding="UTF-8"?>
<svg width="13px" height="24px" viewBox="0 0 13 24" version="1.1" xmlns="http://www.w3.org/2000/svg" xmlns:xlink="http://www.w3.org/1999/xlink">
    <!-- Generator: Sketch 51.3 (57544) - http://www.bohemiancoding.com/sketch -->
    <title>Icons/Actions/CaretRight</title>
    <desc>Created with Sketch.</desc>
    <defs></defs>
    <g id="Symbols" stroke="none" stroke-width="1" fill="none" fill-rule="evenodd">
        <g id="Icons/Arrows/Caret-Right" transform="translate(-6.000000, 0.000000)" fill="#7C98B6">
            <path d="M18.8909431,11.4387777 C18.8549243,11.3487761 18.7878893,11.2717747 18.7328605,11.1887733 C18.6998433,11.1377724 18.6688271,11.0847714 18.6358099,11.0337705 C18.6218025,11.0117701 18.6127978,10.9857697 18.5927874,10.9657693 L8.58756369,0.465583506 C8.01626542,-0.134427113 7.06576917,-0.15742752 6.46545575,0.413582586 C5.86614285,0.985592709 5.84213031,1.9346095 6.41342858,2.53462012 L15.4341383,11.9997876 L6.41342858,21.4659552 C5.84213031,22.0659658 5.86614285,23.0149826 6.46545575,23.5859927 C6.75660776,23.8629976 7.12880208,24 7.5009964,24 C7.89720326,24 8.2924096,23.8439972 8.58756369,23.5349918 L18.5927874,13.0348059 C18.6127978,13.0138056 18.6218025,12.9888051 18.6358099,12.9658047 C18.6688271,12.9158038 18.6998433,12.8628029 18.7328605,12.811802 C18.7878893,12.7288005 18.8549243,12.6517992 18.8909431,12.5617976 C18.9279624,12.470796 18.934966,12.3747943 18.9529754,12.2797926 C18.9709849,12.1867909 19,12.0947893 19,11.9997876 C19,11.905786 18.9709849,11.8137843 18.9529754,11.7207827 C18.934966,11.625781 18.9279624,11.5287793 18.8909431,11.4387777" id="Icons/Actions/CaretRight"></path>
        </g>
    </g>
</svg>