<?xml version="1.0" encoding="UTF-8" standalone="no"?>
<svg width="100px" height="100px" viewBox="0 0 100 100" version="1.1" xmlns="http://www.w3.org/2000/svg" xmlns:xlink="http://www.w3.org/1999/xlink">
    <!-- Generator: Sketch 48.1 (47250) - http://www.bohemiancoding.com/sketch -->
    <title>Avatar 1</title>
    <desc>Created with Sketch.</desc>
    <defs>
        <polygon id="path-1" points="0 0.114437086 99.885596 0.114437086 99.885596 99.9998675 0 99.9998675"></polygon>
    </defs>
    <g id="----Illustrations" stroke="none" stroke-width="1" fill="none" fill-rule="evenodd">
        <g id="Avatar-1">
            <g id="Illustrations/Avatar/1">
                <g id="Page-1">
                    <g id="Group-3" transform="translate(0.000000, 0.216887)">
                        <mask id="mask-2" fill="white">
                            <use xlink:href="#path-1"></use>
                        </mask>
                        <g id="Clip-2"></g>
                        <path d="M99.885596,50.0571523 C99.885596,77.6399338 77.5253311,99.9998675 49.9428808,99.9998675 C22.3600993,99.9998675 -0.000165562914,77.6399338 -0.000165562914,50.0571523 C-0.000165562914,22.4743709 22.3600993,0.114437086 49.9428808,0.114437086 C77.5253311,0.114437086 99.885596,22.4743709 99.885596,50.0571523" id="Fill-1" fill="#F6C364" mask="url(#mask-2)"></path>
                    </g>
                    <path d="M49.9428477,100.216821 C63.4137086,100.216821 75.6368874,94.8817219 84.62,86.2115232 L83.5382119,84.2757616 L76.7388742,80.5962914 L69.7087417,78.6866887 C69.7087417,78.6866887 65.6998013,84.9161589 61.5401987,87.955894 C57.380596,90.995298 51.077947,94.1949669 51.077947,94.1949669 L46.6617219,86.5956291 L45.3017881,86.4360265 L40.2623841,91.5555629 C40.2623841,91.5555629 35.1991391,89.7625166 32.9829139,86.5956291 C30.7666887,83.429404 27.783245,80.8366887 27.783245,80.8366887 L19.6749669,86.6757616 C19.6749669,86.6757616 18.8782781,87.3684768 17.930596,88.6062252 C26.5988079,95.8529139 37.7603974,100.216821 49.9428477,100.216821" id="Fill-4" fill="#0794D1"></path>
                    <path d="M55.8591391,32.8369205 C54.8965563,31.2326159 53.9922517,29.8918874 52.8866225,28.6948675 C49.8452318,25.4024834 46.4366225,22.4875828 43.2316556,19.3630795 C42.324702,18.4789735 41.1107947,18.2501656 39.8501987,18.8630795 C38.9452318,19.3028146 38.1710596,19.8932119 37.4717219,20.6034768 C34.6505298,23.4683775 32.9899338,26.9839404 32.1117881,30.8253311 C30.6750331,37.1097682 30.4147682,43.480298 31.2276821,49.8879139 C31.6594702,53.2918874 32.6157616,56.4895695 34.8098013,59.2018212 C37.335298,62.3240066 40.4952318,64.6687086 44.0177483,66.5432119 C45.5389404,67.3524834 47.1207285,67.2786424 48.7624503,66.8766556 C52.1978808,66.035596 55.0124503,64.1445364 57.6396026,61.8816225 C58.1270199,61.461755 58.7475497,60.5024834 59.3035099,61.0293046 C60.064106,61.7495033 59.0098013,62.3720199 58.5475497,62.8256623 C56.0250331,65.3001656 53.1160927,67.1153974 49.6952318,68.1895695 C46.8684106,69.0766556 44.343245,68.7872517 41.8809934,67.2054636 C41.1376159,66.727649 40.4081457,66.1485099 39.4319868,65.9610927 C39.4319868,66.4210265 39.411457,66.767053 39.4349669,67.1100993 C39.6230464,69.8501656 39.6780132,72.5657285 38.5700662,75.1773179 C38.211457,76.0226821 38.4389404,76.9004967 38.8710596,77.693543 C40.5041722,80.6912252 42.7760265,83.0187086 45.9313245,84.4296358 C46.3776821,84.6289735 46.740596,84.7306291 47.2349669,84.5206954 C52.587947,82.2475166 57.2008609,79.0495033 60.4462252,74.1054636 C61.1290066,73.0653974 61.7144371,72.0418874 61.1316556,70.727649 C60.9776821,70.3809603 61.0634437,69.9243377 61.0551656,69.5177152 C60.9939073,66.4319536 61.2045033,63.3587748 61.4538411,60.2859272 C61.6995364,57.2577815 62.4280132,54.4816225 64.7369536,52.2604305 C66.0227152,51.0233444 66.5723841,49.317053 66.822053,47.5514901 C66.9382781,46.7296358 66.8876159,45.9180464 66.4051656,45.2014901 C65.832649,44.3511589 65.2280132,44.2822848 64.3207285,44.7495033 C63.519404,45.1620861 63.4200662,46.0190397 62.9386093,46.7740066 C62.282649,45.9365894 61.9422517,45.0899007 61.6442384,44.222351 C60.8104636,41.7961921 59.7071523,39.4902318 58.4949007,37.235596 C57.2104636,34.8461921 54.5074834,33.7379139 51.843245,34.4478477 C51.2468874,34.6067881 50.6617881,34.9336093 49.9892715,34.7710265 C50.7468874,32.8428808 51.9319868,32.4352649 55.8591391,32.8369205" id="Fill-6" fill="#B07557"></path>
                    <path d="M32.6539735,35.7352318 C32.8490066,34.5282781 33.6460265,33.9050993 34.6347682,33.5276159 C36.6380795,32.7633775 38.5211921,33.0276159 40.2056291,34.3935099 C42.0182119,35.8633775 43.015894,37.7895364 43.2135762,40.0961589 C43.486755,43.2865563 43.639404,46.4815894 43.0980132,49.6653642 C43.0493377,49.9517881 42.9927152,50.2408609 42.9884106,50.5292715 C42.9748344,51.462053 43.3278146,51.8292715 44.2096026,51.8289404 C44.3241722,51.8289404 44.4380795,51.7839073 44.5536424,51.775298 C45.0463576,51.7401987 45.8033113,51.3130464 45.963245,51.8666887 C46.1804636,52.6206623 45.2672185,52.633245 44.7735099,52.8097351 C42.8870861,53.4849007 41.6165563,52.5342384 41.8864238,50.5150331 C42.281457,47.5600662 42.4370861,44.6090728 42.207947,41.6418543 C42.0546358,39.6550993 41.6980132,37.7441722 40.2860927,36.1597351 C38.5672185,34.2312583 36.0562914,33.8905298 34.0096026,35.2574172 C33.6437086,35.5017881 33.2798013,35.806755 32.6539735,35.7352318" id="Fill-8" fill="#33475C"></path>
                    <path d="M40.2325828,40.9035762 C40.2084106,41.0790728 40.2001325,41.4327152 40.1070861,41.7621854 C39.8435099,42.6949669 38.8137086,43.5045695 37.9451656,43.5019205 C37.1031126,43.4989404 36.238543,42.808543 36.0239735,41.7707947 C35.7640397,40.5125166 35.6524503,39.2201325 36.730596,38.2111921 C37.7001325,37.3042384 38.7488079,37.4015894 39.5521192,38.4433113 C39.9676821,38.9827152 40.2239735,39.8469536 40.2325828,40.9035762" id="Fill-10" fill="#33475C"></path>
                    <path d="M55.5324503,40.0621854 C55.5655629,41.6198013 54.5721854,42.9211258 53.3562914,42.9135099 C52.0490066,42.9055629 51.2086093,41.7492715 51.2798013,40.0572185 C51.3556291,38.2661589 52.4586093,37.2433113 53.8672185,37.6578808 C54.7682119,37.9231126 55.5099338,38.9936424 55.5324503,40.0621854" id="Fill-12" fill="#33475C"></path>
                    <path d="M50.8518212,55.9503974 C50.3862583,57.0782119 49.4375828,57.6196026 48.4004967,57.9712583 C46.017053,58.7788742 43.6160596,58.7305298 41.2491722,57.8811921 C40.0541391,57.4523841 39.7210265,57.0431126 39.1756623,55.4311921 C43.077649,57.9775497 46.9057947,57.9212583 50.8518212,55.9503974" id="Fill-14" fill="#33475C"></path>
                    <path d="M82.3025497,38.0094702 C82.4336755,37.6187417 82.2674503,37.4336424 82.153543,37.2376159 C80.0783775,33.6680795 78.016457,30.090596 75.9197682,26.5336424 C73.3316887,22.1429139 70.2194371,18.177351 66.3138079,14.8684106 C62.7280464,11.83 58.9707616,9.20516556 54.0985762,8.56907285 C51.771755,8.26509934 49.6038742,8.32933775 47.487649,9.35350993 C45.4439404,10.3422517 43.3290397,11.1465563 41.1843377,11.895894 C37.1253974,13.3134437 33.0999007,14.8266887 29.0561921,16.2876159 C27.8432781,16.7260265 27.0257285,17.5449007 26.3843377,18.6545033 C24.1843377,22.4588079 22.7048675,26.5564901 21.4340066,30.732649 C20.6439404,33.33 20.0714238,35.9876159 19.6750662,38.7412583 C20.3505629,38.6382781 20.5396358,37.6501987 21.2234106,38.0187417 C21.9545364,38.4131126 21.5042053,39.1687417 21.5773841,39.7650993 C21.5843377,39.822053 21.5767219,39.8813245 21.5700993,39.9392715 C21.1800331,43.4286755 21.4234106,46.9157616 21.6916225,50.3942384 C21.8283775,52.1674172 21.9224172,53.9621192 22.3611589,55.7498675 C23.6326821,54.7429139 23.9320199,54.7703974 24.3353311,56.1154305 C24.869106,57.8955629 25.3310265,59.7018543 25.7181126,61.519404 C26.374404,64.598543 27.6558609,67.3598013 29.6846689,69.7644371 C31.3412914,71.7283444 32.4432781,73.9187417 32.5899669,76.5280132 C32.5946026,76.6121192 32.7257285,76.6889404 32.8906291,76.8717219 C33.9833444,76.4303311 35.0813576,75.9058278 36.2310265,75.5465563 C37.2015563,75.243245 37.6045364,74.6730464 37.7724172,73.6992053 C38.2118212,71.148543 38.0214238,68.6008609 37.9595033,66.0425828 C37.9316887,64.8915894 37.5353311,64.1303311 36.6618212,63.3882781 C32.8214238,60.1253642 30.6555298,55.9525166 29.9273841,50.9528477 C29.3104967,46.7134437 29.3995695,42.4783444 29.7124834,38.2435762 C29.9177815,35.4647682 30.2379801,32.6846358 31.0177815,29.985298 C32.1618212,26.0233775 33.8419536,22.3558278 36.7522185,19.3468874 C37.5700993,18.5005298 38.4820199,17.7998675 39.5813576,17.3508609 C42.2856623,16.2472185 42.735,16.3316556 44.7585099,18.3293377 C47.2416225,20.7809934 49.7174503,23.2402649 52.2224172,25.669404 C53.8624834,27.2594702 55.2714238,29.0250331 56.4644702,30.9670861 C58.8416225,34.8366225 61.1002318,38.7650993 62.6489073,43.0598013 C63.0174503,44.0819868 63.053543,44.0690728 64.0568543,43.6144371 C65.7273841,42.8574834 67.4502318,43.6952318 67.9803642,45.5455629 C68.1740728,46.2210596 68.1919536,46.9240397 68.1399669,47.6243709 C67.9601656,50.0276821 67.1167881,52.1617881 65.4465894,53.9121192 C64.2363245,55.1803311 63.5148013,56.6697351 63.2240728,58.369404 C62.5154636,62.5117881 62.266457,66.6846358 62.4449338,70.885298 C62.4753974,71.6021854 62.690298,72.0170861 63.3922848,72.3439073 C65.7101656,73.4233775 67.9568543,74.6554967 70.3343377,75.6088079 C70.9505629,75.8558278 71.6273841,76.1425828 71.4740728,76.9250331 C71.3058609,77.7823179 71.7532119,77.8558278 72.3714238,77.964106 C72.8237417,78.043245 73.2515563,78.2588079 73.6932781,78.4051656 C75.0856623,78.866755 75.1452649,78.8816556 75.5250662,77.5180795 C77.0634768,71.9972185 78.1624834,66.4230464 77.3038742,60.645894 C77.2611589,60.3588079 77.2128146,60.0700662 77.203543,59.7806623 C77.190298,59.3488742 77.3197682,58.9584768 77.753543,58.7849669 C78.1356623,58.6323179 78.4277152,58.8770199 78.6740728,59.1250331 C79.0833444,59.5376159 79.4489073,59.9949007 79.8710927,60.393245 C80.1359934,60.643245 80.3277152,61.1240397 80.9306954,60.8339735 C81.0909603,55.9786755 81.0038742,51.1124503 80.0820199,46.2856291 C79.6452649,43.9975497 79.0330132,41.7568212 78.4346689,39.5094702 C78.085,38.1972185 78.4638079,37.8157616 79.8280464,37.9303311 C80.6340066,37.9978808 81.4353311,38.1786755 82.3025497,38.0094702" id="Fill-16" fill="#542B19"></path>
                    <path d="M69.7087748,77.1136755 C67.4899007,76.1418212 65.4024834,75.270298 63.4491722,74.1136755 C62.3412252,73.4580464 62.2902318,73.483543 61.6399007,74.6977815 C60.6461921,76.5524172 59.5448675,78.3265894 57.9915563,79.7696358 C55.2071192,82.3563907 52.2306291,84.6630132 48.5859272,85.9351987 C47.9140728,86.1696358 47.6253311,86.4120199 48.0048013,87.1739404 C48.7557947,88.680894 49.3812914,90.2500993 50.1163907,91.7653311 C50.9293046,93.4418212 51.0362583,93.5103642 52.7501656,92.6126821 C56.9385762,90.4193046 60.8468543,87.8077152 64.1902318,84.4328808 C66.3163907,82.2871854 68.2991722,80.017649 69.7087748,77.1136755" id="Fill-18" fill="#0794D1"></path>
                    <path d="M44.9569536,85.7536755 C44.4976821,85.5053311 44.1039735,85.2685762 43.6910596,85.0725497 C41.4735099,84.0225497 39.7629139,82.412947 38.4711921,80.3467219 C37.9794702,79.5606291 37.4397351,78.7857947 37.0854305,77.9377815 C36.7509934,77.136457 36.3556291,77.0636093 35.6165563,77.3559934 C33.6758278,78.123543 31.7384106,78.915596 29.657947,79.2540066 C29.2082781,79.3271854 28.7225166,79.3225497 28.3652318,79.6871192 C28.3715232,79.8003642 28.3437086,79.9278477 28.3897351,80.0172517 C28.5483444,80.3261921 28.718543,80.6318212 28.9099338,80.9215563 C31.144702,84.3053311 34.0115894,87.0791722 37.2327815,89.5053311 C37.8377483,89.9609603 38.5380795,90.249702 39.234106,90.5483775 C39.7983444,90.7910927 40.252649,90.7026821 40.6539735,90.2831457 C42.0509934,88.8218874 43.4397351,87.3520199 44.9569536,85.7536755" id="Fill-20" fill="#0794D1"></path>
                    <path d="M73.6932119,78.4048675 C73.2518212,78.2588411 72.8240066,78.0432781 72.3713576,77.9641391 C71.7531457,77.8558609 71.3057947,77.7826821 71.4740066,76.9250662 C71.627649,76.1426159 70.9504967,75.8558609 70.3346026,75.6091722 C67.9567881,74.6555298 65.7104305,73.4234106 63.3925497,72.3439404 C62.6902318,72.0171192 62.4753311,71.6022185 62.4448675,70.8853311 C62.2663907,66.6843377 62.5153974,62.5121523 63.2240066,58.3694371 C63.5150662,56.6694371 64.2362583,55.1803642 65.4465232,53.9118212 C67.117053,52.1618212 67.9604305,50.0277152 68.1399007,47.624404 C68.1922185,46.9240728 68.1740066,46.2210927 67.9806291,45.545596 C67.4501656,43.6949338 65.7273179,42.8571854 64.0571192,43.6141391 C63.0534768,44.0687748 63.0173841,44.0820199 62.6488411,43.0598344 C61.1001656,38.7651325 58.8415563,34.8366556 56.4647351,30.9671192 C55.2716887,29.0250662 53.8624172,27.2595033 52.222351,25.669106 C49.7173841,23.240298 47.2418874,20.7813576 44.7587748,18.3293709 C42.7352649,16.3316887 42.2859272,16.2472517 39.5812914,17.350894 C38.4819536,17.7999007 37.5700331,18.500894 36.7518212,19.3469205 C33.8418874,22.3555298 32.1620861,26.0237417 31.0177152,29.9846689 C30.2379139,32.6846689 29.9177152,35.4648013 29.7124172,38.2436093 C29.3998344,42.4783775 29.3104305,46.7138079 29.927649,50.9525497 C30.6554636,55.9522185 32.8213576,60.1250662 36.6620861,63.387649 C37.535596,64.1303642 37.9316225,64.8912914 37.9597682,66.0426159 C38.0216887,68.6005629 38.211755,71.1485762 37.772351,73.6992384 C37.6044702,74.6727483 37.2014901,75.2432781 36.2309603,75.5465894 C35.0812914,75.9058609 33.9832781,76.4303642 32.8905629,76.871755 C32.7256623,76.6886424 32.5945364,76.6121523 32.5899007,76.5280464 C32.4432119,73.9187748 31.3412252,71.7280464 29.6846026,69.7644702 C27.6557947,67.3598344 26.3746689,64.5985762 25.7183775,61.5194371 C25.3309603,59.7022185 24.8690397,57.8952649 24.3352649,56.1154636 C23.9322848,54.7700993 23.6326159,54.742947 22.3614238,55.7499007 C21.922351,53.9624834 21.8286424,52.1677815 21.6918874,50.3942715 C21.4233444,46.9157947 21.1799669,43.4290397 21.5700331,39.9393046 C21.5766556,39.8816887 21.5846026,39.821755 21.5773179,39.7651325 C21.5044702,39.1687748 21.9544702,38.4131457 21.2233444,38.0184437 C20.5395695,37.6502318 20.3504967,38.6383113 19.675,38.7412914 C20.0713576,35.9873179 20.6438742,33.329702 21.4342715,30.732351 C22.7048013,26.5565232 24.1842715,22.4588411 26.3842715,18.6545364 C27.0256623,17.5449338 27.843543,16.7257285 29.0561258,16.287649 C33.1001656,14.8267219 37.1253311,13.3134768 41.1842715,11.8959272 C43.3289735,11.1465894 45.4438742,10.3422848 47.4879139,9.35354305 C49.6038079,8.32970199 51.7716887,8.26513245 54.0985099,8.56910596 C58.9706954,9.20486755 62.7279801,11.8303642 66.3137417,14.8684437 C70.2193709,18.1773841 73.3319536,22.142947 75.9200331,26.5336755 C78.0163907,30.0906291 80.0783113,33.6681126 82.1534768,37.237649 C82.2677152,37.4336755 82.4336093,37.6187748 82.3024834,38.0095033 C81.435596,38.1787086 80.6342715,37.9979139 79.8279801,37.9303642 C78.4637417,37.8157947 78.0852649,38.1972517 78.4346026,39.5095033 C79.032947,41.7571854 79.6451987,43.9975828 80.0819536,46.2856623 C81.0041391,51.1121523 81.090894,55.9783775 80.9306291,60.8340066 C80.3279801,61.1240728 80.1362583,60.6432781 79.8710265,60.3932781 C79.4488411,59.9949338 79.0832781,59.537649 78.6740066,59.1247351 C78.427649,58.8767219 78.135596,58.632351 77.7534768,58.785 C77.3200331,58.9581788 77.1902318,59.3489073 77.2038079,59.7810265 C77.2127483,60.0700993 77.2610927,60.3585099 77.3038079,60.6459272 C78.1627483,66.4227483 77.0637417,71.9969205 75.525,77.5181126 C75.1451987,78.8813576 75.085596,78.8667881 73.6932119,78.4048675 M64.1902318,84.4330132 C60.8468543,87.8075166 56.9385762,90.419106 52.7501656,92.6124834 C51.0362583,93.5101656 50.9293046,93.4416225 50.1163907,91.7654636 C49.3812914,90.2499007 48.7557947,88.6806954 48.0048013,87.1737417 C47.6253311,86.4121523 47.9140728,86.1694371 48.5859272,85.9346689 C52.2306291,84.6628146 55.2067881,82.3565232 57.9915563,79.7694371 C59.5448675,78.3267219 60.6461921,76.5518874 61.6399007,74.6979139 C62.2902318,73.4833444 62.3412252,73.4581788 63.4491722,74.1138079 C65.4024834,75.2700993 67.4899007,76.1419536 69.7087748,77.1138079 C68.2991722,80.0174503 66.3163907,82.2873179 64.1902318,84.4330132 M47.2349338,84.5207616 C46.7405629,84.7306954 46.377649,84.6290397 45.9312914,84.4293709 C42.7759934,83.0187748 40.5044702,80.6909603 38.8710265,77.6936093 C38.4389073,76.9005629 38.211755,76.0227483 38.5700331,75.1773841 C39.6779801,72.5661258 39.6230132,69.8499007 39.4352649,67.1098344 C39.411755,66.7671192 39.4319536,66.4210927 39.4319536,65.9611589 C40.4081126,66.148245 41.1375828,66.7273841 41.8809603,67.2055298 C44.3432119,68.7873179 46.8683775,69.0767219 49.6951987,68.1893046 C53.1160596,67.1154636 56.025,65.3002318 58.5475166,62.8257285 C59.0097682,62.3724172 60.064404,61.7495695 59.3034768,61.0290397 C58.7475166,60.5028808 58.1269868,61.4618212 57.6395695,61.8816887 C55.0120861,64.1446026 52.1978477,66.0356623 48.7620861,66.8767219 C47.1203642,67.2783775 45.5389073,67.3522185 44.0177152,66.5432781 C40.4951987,64.6687748 37.3352649,62.3240728 34.8097682,59.2018874 C32.6157285,56.4893046 31.6597682,53.2916225 31.227649,49.8879801 C30.4147351,43.4800331 30.675,37.1098344 32.111755,30.8253974 C32.9902318,26.9840066 34.6504967,23.4684437 37.4720199,20.6032119 C38.1710265,19.8932781 38.9451987,19.3028808 39.8501656,18.8631457 C41.1110927,18.2505629 42.3246689,18.4787086 43.2312914,19.3628146 C46.4365894,22.4873179 49.8451987,25.4025497 52.8869205,28.6949338 C53.9922185,29.8916225 54.8965232,31.232351 55.859106,32.8369868 C51.9319536,32.4353311 50.7468543,32.8426159 49.9895695,34.7710927 C50.661755,34.9336755 51.2465232,34.6068543 51.8432119,34.4479139 C54.5074503,33.737649 57.2104305,34.8462583 58.4948675,37.2353311 C59.7071192,39.4906291 60.8104305,41.7959272 61.6442053,44.2224172 C61.9422185,45.0899669 62.282947,45.9363245 62.9385762,46.7740728 C63.4200331,46.0187748 63.5193709,45.1618212 64.3206954,44.7495695 C65.2279801,44.2826821 65.8326159,44.3512252 66.4051325,45.2018874 C66.8879139,45.9181126 66.938245,46.729702 66.8220199,47.5515563 C66.572351,49.3167881 66.0226821,51.0234106 64.7369205,52.2608278 C62.4279801,54.4816887 61.6995033,57.2581788 61.4538079,60.2853311 C61.2044702,63.3588411 60.9938742,66.4320199 61.0551325,69.5177815 C61.0634106,69.924404 60.9779801,70.3810265 61.1316225,70.7273841 C61.714404,72.0419536 61.1289735,73.0654636 60.4461921,74.1055298 C57.2008278,79.0492384 52.5879139,82.2472517 47.2349338,84.5207616 M40.6541391,90.2826821 C40.2524834,90.7028808 39.7981788,90.7909603 39.2342715,90.5485762 C38.538245,90.2495695 37.8375828,89.9604967 37.232947,89.5051987 C34.011755,87.0787086 31.1448675,84.3051987 28.9097682,80.921755 C28.7183775,80.6320199 28.5485099,80.3263907 28.3895695,80.0171192 C28.343543,79.9280464 28.3713576,79.8005629 28.3653974,79.6869868 C28.7226821,79.3224172 29.2081126,79.327053 29.6577815,79.2538742 C31.7385762,78.9154636 33.6759934,78.1234106 35.6167219,77.3558609 C36.3557947,77.0634768 36.7511589,77.1359934 37.085596,77.9373179 C37.4395695,78.7856623 37.9796358,79.5604967 38.4710265,80.3465894 C39.7627483,82.4131457 41.4736755,84.0227483 43.690894,85.0727483 C44.1041391,85.2687748 44.4978477,85.5051987 44.9567881,85.753543 C43.4399007,87.3522185 42.0511589,88.821755 40.6541391,90.2826821 M83.1922185,82.9873179 C81.3584437,81.9806954 79.5306291,80.9621523 77.6819536,79.9833444 C76.506457,79.3608278 76.5084437,79.3936093 76.8988411,78.0492384 C78.3501656,73.0499007 79.3163907,67.9873179 78.8637417,62.7409603 C78.8326159,62.3777152 78.6415563,61.942947 79.0650662,61.6293709 C79.6604305,61.8565232 79.8998344,62.4187748 80.2740066,62.8393046 C80.667053,63.2813576 81.0395695,63.7873179 81.7246689,63.5280464 C82.3193709,63.3032119 82.3137417,62.7230795 82.356457,62.2015563 C82.9213576,55.3108278 82.6438742,48.487649 80.7160596,41.7965894 C80.0816225,39.5946026 80.0869205,39.6005629 82.4392384,39.6399669 C83.1253311,39.6515563 83.9226821,39.8098344 84.3763245,39.1528808 C84.9163907,38.3710927 84.2610927,37.7227483 83.9057947,37.0883113 C82.0312914,33.7396358 80.1213576,30.4111589 78.2518212,27.0595033 C75.5418874,22.200894 72.3511589,17.7313576 68.1140728,14.0558609 C64.064404,10.542947 59.8160596,7.52539735 54.2465232,6.89460265 C52.0346026,6.64427152 49.940894,6.79559603 47.9339404,7.62672185 C42.1309603,10.0300331 36.2481788,12.2197682 30.3163907,14.2757285 C27.5336093,15.2406291 25.3650662,16.7806954 24.2766556,19.6154636 C24.0693709,20.1558609 23.7574503,20.6555298 23.5137417,21.1826821 C20.7581126,27.1419536 19.1054636,33.4197682 18.1326159,39.8909603 C18.0203642,40.6383113 17.9349338,41.390298 17.8597682,42.1419536 C17.8226821,42.5131457 17.9346026,42.8532119 18.3412252,42.953543 C18.6541391,43.0306954 18.8879139,42.8495695 19.0746689,42.5999007 C19.364404,42.2124834 19.4736755,41.6561921 20.2110927,41.3538742 C20.2110927,43.5492384 20.159106,45.5671192 20.222351,47.5810265 C20.3405629,51.3671192 20.8385762,55.1114901 21.5971854,58.821755 C21.6796358,59.2260596 21.7587748,59.6555298 22.2892384,59.6813576 C22.7034768,59.7018874 22.8905629,59.4038742 23.0279801,59.0624834 C23.1127483,58.8515563 23.1806291,58.6154636 23.4759934,58.5853311 C23.5389073,58.6565232 23.643543,58.7230795 23.6653974,58.8098344 C23.8213576,59.429702 23.988245,60.0492384 24.1001656,60.6780464 C24.7985099,64.5989073 26.3614238,68.1134768 28.9574503,71.1548675 C30.2405629,72.6581788 30.838245,74.4614901 31.2677152,76.3588411 C31.4326159,77.0863245 31.3690397,77.432351 30.5839404,77.5704305 C29.611755,77.7412914 28.6458609,77.9677815 27.6942053,78.2306954 C26.9667219,78.4313576 26.3677152,78.8051987 26.7465232,79.7267219 C26.9587748,80.242947 26.7077815,80.487649 26.2812914,80.6571854 C25.5031457,80.966457 24.9504967,81.5707616 24.3293046,82.095596 C23.3978477,82.8833444 22.461755,83.679702 21.4498344,84.3558609 C19.819702,85.4452649 18.4418874,86.6883113 17.3319536,88.0995695 C17.6918874,88.4104967 18.0577815,88.7151325 18.4266556,89.0154636 C18.9720199,88.3177815 19.6150662,87.6777152 20.3779801,87.1071854 C22.7504967,85.335 25.1789735,83.6373179 27.5895695,81.9161258 C27.6574503,81.8674503 27.7988411,81.9220861 27.9726821,81.9326821 C28.1548013,82.1740728 28.3753311,82.4409603 28.5693709,82.7263907 C30.4498344,85.4866556 32.7428808,87.8684437 35.2504967,90.0581788 C36.0899007,90.7909603 36.9932119,91.4124834 38.0283113,91.8359934 C39.9309603,92.6138079 40.4210265,92.5210927 41.8892384,91.0446026 C42.7812914,90.1479139 43.6379139,89.2134768 44.9783113,88.2187748 C44.8293046,89.9896358 44.6730132,91.3737417 44.6024834,92.7618212 C44.4822848,95.1409603 44.3902318,97.5210927 44.3375828,99.9022185 C44.7849338,99.9518874 45.2336093,99.9962583 45.6842715,100.034007 C45.7687086,98.1359934 45.893543,96.2383113 46.0793046,94.3426159 C46.2634106,92.4634768 46.343543,90.5621523 46.8220199,88.6224172 C47.3991722,89.0936093 47.4690397,89.7025497 47.706457,90.2121523 C48.1481788,91.1601656 48.5001656,92.1525497 48.9836093,93.077053 C50.0554636,95.127053 50.6465232,95.3810265 52.7147351,94.3598344 C57.4349338,92.0280464 61.7551325,89.0972517 65.4809603,85.3505629 C66.832947,83.9906291 68.159106,82.598245 69.2779801,81.0280464 C69.6468543,80.5104967 69.9180464,79.8025497 70.4213576,79.5346689 C70.9961921,79.2287086 71.509106,80.0293709 72.1369205,80.1386424 C75.5885762,80.7389735 78.5067881,82.5989073 81.572351,84.1220861 C82.7471854,84.7051987 83.6822848,85.4737417 84.3720199,86.4522185 C84.8180464,86.0277152 85.2538079,85.5932781 85.6836093,85.1528808 C85.0349338,84.277053 84.2127483,83.5472517 83.1922185,82.9873179" id="Fill-22" fill="#33475C"></path>
                </g>
            </g>
        </g>
    </g>
</svg>
